<svg width="147" height="51" viewBox="0 0 147 51" fill="none" xmlns="http://www.w3.org/2000/svg">
<path d="M22.8493 10.4341C8.2144 17.9371 10.3131 20.3617 1 24.1133V51.0001H146V1.24393C130.035 -1.25702 128.704 16.2494 115.4 18.7506C102.095 21.2517 98.1039 -0.00672901 82.1385 1.24393C66.1732 2.49458 68.2719 5.43201 53.637 10.4341C39.0021 15.4362 37.4842 2.93106 22.8493 10.4341Z" fill="url(#paint0_linear_57_119)" fill-opacity="0.1"/>
<path d="M1 24.0001C10.3131 20.2669 8.2144 17.8542 22.8493 10.3879C37.4842 2.9216 39.0021 15.3655 53.637 10.3879C68.2719 5.4103 66.1732 2.48726 82.1385 1.24273C98.1039 -0.00179761 102.095 21.1525 115.4 18.6636C128.704 16.1747 130.035 -1.24597 146 1.24273" stroke="#28A745"/>
<defs>
<linearGradient id="paint0_linear_57_119" x1="73.5" y1="1.00012" x2="73.5" y2="26.0001" gradientUnits="userSpaceOnUse">
<stop stop-color="#28A745"/>
<stop offset="1" stop-color="#28A745" stop-opacity="0"/>
</linearGradient>
</defs>
</svg>
