<svg width="147" height="51" viewBox="0 0 147 51" fill="none" xmlns="http://www.w3.org/2000/svg">
<path d="M20.1509 17.4313C5.10377 24.3768 10.5755 35.9519 1 39.4247V51H146V1.22569C129.585 -1.08941 128.217 15.1161 114.538 17.4313C100.858 19.7466 96.7547 0.0679718 80.3396 1.22569C63.9245 2.3834 63.9245 22.0613 48.8774 26.6917C33.8302 31.3221 35.1981 10.4859 20.1509 17.4313Z" fill="url(#paint0_linear_57_155)" fill-opacity="0.1"/>
<path d="M1 40C10.5755 36.4752 5.10377 24.7268 20.1509 17.6773C35.1981 10.6279 33.8302 31.776 48.8774 27.0764C63.9245 22.3767 63.9245 2.40411 80.3396 1.22906C96.7547 0.0540176 100.858 20.0273 114.538 17.6773C128.217 15.3274 129.585 -1.12069 146 1.22906" stroke="#28A745"/>
<defs>
<linearGradient id="paint0_linear_57_155" x1="73.5" y1="1" x2="73" y2="26" gradientUnits="userSpaceOnUse">
<stop stop-color="#28A745"/>
<stop offset="1" stop-color="#28A745" stop-opacity="0"/>
</linearGradient>
</defs>
</svg>
