<svg width="147" height="51" viewBox="0 0 147 51" fill="none" xmlns="http://www.w3.org/2000/svg">
<path d="M124.151 10.434C138.786 17.937 136.687 20.3616 146 24.1132V51H1V1.2438C16.9654 -1.25714 18.2958 16.2493 31.6003 18.7504C44.9048 21.2516 48.8961 -0.00685108 64.8615 1.2438C80.8268 2.49446 78.7281 5.43189 93.363 10.434C107.998 15.436 109.516 2.93094 124.151 10.434Z" fill="url(#paint0_linear_57_78)" fill-opacity="0.1"/>
<path d="M146 24C136.687 20.2668 138.786 17.854 124.151 10.3878C109.516 2.92148 107.998 15.3653 93.363 10.3878C78.7281 5.41018 80.8268 2.48714 64.8615 1.24261C48.8961 -0.00191968 44.9048 21.1524 31.6003 18.6635C18.2958 16.1746 16.9654 -1.24609 0.999996 1.24261" stroke="#EA3F3F"/>
<defs>
<linearGradient id="paint0_linear_57_78" x1="73.5" y1="1" x2="73.5" y2="26" gradientUnits="userSpaceOnUse">
<stop stop-color="#EA3F3F"/>
<stop offset="1" stop-color="#EA3F3F" stop-opacity="0"/>
</linearGradient>
</defs>
</svg>
