<svg width="147" height="51" viewBox="0 0 147 51" fill="none" xmlns="http://www.w3.org/2000/svg">
<path d="M126.849 17.4313C141.896 24.3768 136.425 35.9519 146 39.4247V51H1V1.22569C17.4151 -1.08941 18.783 15.1161 32.4623 17.4313C46.1415 19.7466 50.2453 0.0679718 66.6604 1.22569C83.0755 2.3834 83.0755 22.0613 98.1226 26.6917C113.17 31.3221 111.802 10.4859 126.849 17.4313Z" fill="url(#paint0_linear_57_77)" fill-opacity="0.1"/>
<path d="M146 40C136.425 36.4752 141.896 24.7268 126.849 17.6773C111.802 10.6279 113.17 31.776 98.1226 27.0764C83.0755 22.3767 83.0755 2.40411 66.6604 1.22906C50.2453 0.0540176 46.1415 20.0273 32.4623 17.6773C18.783 15.3274 17.4151 -1.12069 0.999995 1.22906" stroke="#EA3F3F"/>
<defs>
<linearGradient id="paint0_linear_57_77" x1="73.5" y1="1" x2="74" y2="26" gradientUnits="userSpaceOnUse">
<stop stop-color="#EA3F3F"/>
<stop offset="1" stop-color="#EA3F3F" stop-opacity="0"/>
</linearGradient>
</defs>
</svg>
